<svg width="161" height="59" viewBox="0 0 161 59" fill="none" xmlns="http://www.w3.org/2000/svg">
<mask id="path-1-inside-1_84_1780" fill="white">
<path d="M13.6434 36.9574C11.7789 38.8678 8.87678 36.0386 10.7414 34.124C12.6039 32.2136 15.5059 35.047 13.6434 36.9574ZM55.9789 34.3595C55.1747 38.147 53.5559 41.8011 51.1247 45.0386C52.7518 46.922 50.3476 49.6199 48.2893 48.2532C46.1872 50.2949 43.833 51.9324 41.333 53.1657C42.1789 56.6574 37.2351 58.3782 35.6851 55.1845C33.758 55.6553 31.7705 55.9199 29.7497 55.9574C28.7059 58.4886 24.958 58.1595 24.3476 55.5178C21.6497 55.022 18.9184 54.0824 16.5351 52.8365C14.2059 54.7615 10.808 52.5074 11.733 49.6261C8.76219 47.1407 6.37678 44.0824 4.69136 40.6386C1.63719 41.2011 0.06011 37.0157 2.77053 35.4449C2.02886 32.574 1.74761 29.5574 1.99136 26.5032C-1.17531 25.5261 -0.377391 20.6199 3.05803 20.8199C4.68094 15.3803 7.86011 10.8136 11.9664 7.47196C10.1809 3.98655 14.708 0.519879 17.5893 3.32821C17.7289 3.46363 17.8497 3.60946 17.9643 3.76155C22.3122 1.78863 27.1934 0.942796 32.1518 1.48655C33.0747 -0.936371 36.7184 -0.221788 36.6664 2.36155C37.9768 2.72821 39.2664 3.19696 40.5184 3.76571C41.7601 2.44696 43.8997 3.64696 43.4976 5.34279C44.208 5.77613 44.908 6.25529 45.5914 6.7678C47.2143 7.97821 48.7226 9.3928 50.033 10.922C51.4539 10.3803 52.7997 12.0865 51.8809 13.3386C52.8268 14.7324 53.6289 16.1949 54.2934 17.7074C56.6622 17.3574 57.8268 20.6199 55.7122 21.822C56.2914 24.0761 56.5789 26.3928 56.5726 28.7115C59.8247 29.4574 59.3143 34.3115 55.9789 34.3595ZM49.1559 13.0574C48.0768 13.1928 46.9955 13.3803 45.9247 13.6053C45.9726 14.1011 45.9143 14.6074 45.7539 15.0824C48.1809 16.0282 50.5393 17.222 52.7851 18.6574L53.3539 18.0886C52.9872 17.2595 52.5809 16.4449 52.1372 15.6574C51.8039 15.0678 51.4434 14.4865 51.0622 13.924C50.3309 14.1428 49.4809 13.7782 49.1559 13.0574ZM26.9726 25.2449C30.158 26.3928 33.2372 27.9595 36.1289 29.947C36.2476 29.8428 36.3789 29.7553 36.5101 29.6824C35.408 26.6449 33.9268 23.7115 32.058 20.9699C31.483 21.2199 30.8039 21.1636 30.2726 20.7928C29.0184 21.749 27.8143 22.7865 26.6601 23.9095C26.9101 24.3157 27.0143 24.7865 26.9726 25.2449ZM38.9684 13.1053C39.0247 12.8595 39.1143 12.6136 39.2289 12.3845C36.1643 10.4324 32.8914 8.94488 29.5143 7.92196C28.7789 8.90738 28.0955 9.91988 27.4643 10.949C27.9497 11.2886 28.3247 11.7845 28.5018 12.399C32.0059 12.1865 35.5226 12.4199 38.9684 13.1053ZM38.8684 14.0865C35.4872 13.4011 32.0372 13.1678 28.6018 13.3803C28.5643 13.8407 28.4143 14.2886 28.1539 14.6907C29.0601 15.6095 29.9164 16.5595 30.7205 17.5407C31.358 17.322 32.1101 17.4574 32.6164 17.9699C34.6455 16.6907 36.7705 15.6053 38.9518 14.7178C38.9059 14.5136 38.8789 14.299 38.8684 14.0865ZM23.2455 14.0865C16.8934 15.3595 10.8039 18.2095 5.59344 22.6136C5.71844 22.9115 5.79136 23.2303 5.80803 23.549C11.4664 22.4949 17.2851 22.6407 22.9122 24.024C23.0059 23.847 23.1268 23.6803 23.2726 23.5324C23.9976 22.7928 25.1309 22.6824 25.9705 23.2157C27.1455 22.072 28.3726 21.0115 29.6455 20.0407C29.3643 19.4157 29.4476 18.6574 29.9122 18.1095C29.1497 17.1803 28.3351 16.2782 27.4747 15.4053C26.0122 16.4657 23.8414 15.7824 23.2455 14.0865ZM37.4497 29.3845C37.7934 29.347 38.1372 29.3886 38.4726 29.499C40.2518 25.647 41.3851 21.5699 41.8539 17.4365C40.8164 17.274 39.8184 16.5865 39.3018 15.6365C37.1664 16.5032 35.0955 17.5615 33.1122 18.8199C33.2414 19.3365 33.1476 19.8949 32.8289 20.349C34.7705 23.1949 36.3101 26.2324 37.4497 29.3845ZM39.3226 30.0011C39.558 30.2136 39.7414 30.4657 39.8705 30.7303C41.6768 29.947 43.4309 29.0303 45.1226 27.9699C44.9184 24.3886 44.2351 20.8407 43.0643 17.4157C42.9914 17.4324 42.9184 17.4428 42.8455 17.4532C42.3601 21.7595 41.1872 26.0011 39.3226 30.0011ZM39.8705 32.8553C41.4059 34.197 42.8143 35.6324 44.0997 37.1407C44.2559 37.072 44.4226 37.0365 44.5955 37.0261C45.0539 34.4011 45.2414 31.7428 45.1684 29.097C43.5351 30.0886 41.8497 30.9553 40.1101 31.697C40.1268 32.0928 40.0476 32.4907 39.8705 32.8553ZM46.0664 27.3636C47.7164 26.2636 49.2976 25.0303 50.7893 23.6574C49.0726 21.1157 47.033 18.7261 44.7309 16.6115C44.4997 16.8095 44.2559 16.9782 43.9934 17.1074C45.1268 20.4386 45.8205 23.8824 46.0664 27.3636ZM51.5164 22.974C52.0372 22.474 52.5497 21.9574 53.0455 21.4199C52.5914 20.9449 52.3309 20.2803 52.4289 19.5865C50.2476 18.1782 47.9622 17.0032 45.6018 16.074C47.8414 18.1678 49.8289 20.5011 51.5164 22.974ZM42.5851 6.50113C42.7934 7.81779 42.9393 9.13655 43.0184 10.4574C44.1872 10.6615 45.258 11.5282 45.6955 12.6511C46.808 12.4157 47.9247 12.222 49.0476 12.0824C49.083 11.899 49.1559 11.7157 49.2601 11.5532C47.4809 9.4553 45.3622 7.64488 43.0122 6.19904C42.883 6.32405 42.7414 6.42821 42.5851 6.50113ZM36.2372 3.6678C38.1434 5.8553 39.7726 8.1928 41.1289 10.647C41.4205 10.5303 41.7247 10.4574 42.0372 10.4261C41.958 9.1678 41.8184 7.92196 41.6184 6.67405C40.6434 6.56988 39.9289 5.60946 40.0893 4.64904C38.9268 4.12196 37.7101 3.67821 36.4476 3.3178C36.3851 3.43863 36.3164 3.55738 36.2372 3.6678ZM30.158 7.09071C33.5039 8.14071 36.7434 9.63238 39.7872 11.5699L40.2789 11.122C38.958 8.7303 37.3705 6.4553 35.5226 4.3303C34.6205 4.85738 33.5393 4.66988 32.8184 4.05321L30.158 7.09071ZM18.4393 4.6428C18.5122 4.84279 18.5643 5.04488 18.6018 5.25321C22.1497 5.30113 25.6997 5.81363 29.1455 6.79488L32.208 3.26571C32.0934 3.01988 32.0268 2.75321 32.0059 2.4678C27.3851 1.98655 22.7184 2.7178 18.4393 4.6428ZM18.3143 7.37821C20.3018 8.43238 22.2226 9.65946 24.0497 11.0678C24.7809 10.4428 25.7309 10.297 26.5705 10.5303C27.1726 9.54488 27.8143 8.57821 28.508 7.63446C25.2768 6.74696 21.958 6.28238 18.633 6.23446C18.5955 6.62613 18.4872 7.01363 18.3143 7.37821ZM4.04969 21.0532L5.06219 21.7803C10.3914 17.3011 16.6122 14.4095 23.0893 13.1157C23.0997 12.672 23.2143 12.2282 23.4351 11.8303C21.633 10.4428 19.7393 9.23238 17.7705 8.20321C16.4039 9.75321 13.9872 9.80113 12.5559 8.30321C8.53303 11.6115 5.48511 16.272 4.04969 21.0532ZM23.0851 26.3303C22.7872 25.9282 22.6455 25.449 22.6559 24.9678C17.0768 23.6011 11.2934 23.4803 5.68719 24.5657C5.31636 25.8136 4.16428 26.5824 2.96844 26.6282C2.74344 29.5261 3.00594 32.3865 3.69969 35.1095C6.72053 34.5886 8.27678 38.7011 5.61428 40.2886C7.20178 43.5095 9.43094 46.3782 12.1914 48.7282C12.608 48.1595 13.2309 47.7303 13.9976 47.574C14.8643 39.9699 17.8914 32.5574 23.0851 26.3303ZM17.4414 49.5115C25.0268 46.4532 31.8122 40.7782 36.2059 33.7011C35.2934 32.9865 35.033 31.722 35.5226 30.7261C32.7205 28.8053 29.7393 27.2907 26.6539 26.1803C26.0643 27.1345 24.8018 27.4636 23.8309 26.9678C18.7997 33.0011 15.8559 40.174 14.983 47.5386C16.0747 47.674 17.0726 48.4678 17.4414 49.5115ZM37.8518 34.2074C37.5955 34.222 37.3393 34.2011 37.0934 34.1345C32.5539 41.4886 25.5059 47.3615 17.6205 50.497C17.6247 51.0865 17.4684 51.6199 17.1914 52.0678C19.3684 53.1865 21.8434 54.0365 24.2914 54.5053C24.7455 50.9615 30.0789 51.3949 29.9539 54.9699C31.8059 54.9178 33.633 54.674 35.408 54.2449C35.2351 52.674 36.3434 51.0615 38.1018 50.8845C39.2018 45.372 39.1143 39.6824 37.8518 34.2074ZM39.2705 50.999C41.4101 47.5532 42.9664 43.8532 43.9476 40.0365C43.1434 39.6032 42.8726 38.5386 43.3476 37.7782C42.1039 36.3157 40.7476 34.9324 39.2664 33.6386C39.1184 33.7636 38.9622 33.8678 38.7955 33.9574C40.0893 39.5365 40.1934 45.3407 39.0934 50.9574C39.1497 50.9615 39.2122 50.9782 39.2705 50.999ZM48.108 44.7865C47.2559 43.1907 46.2914 41.6345 45.2101 40.147C45.1122 40.1782 45.0122 40.2053 44.9122 40.2157C43.9205 44.1199 42.3351 47.9095 40.158 51.4365L40.9205 52.2407C43.3726 51.024 45.6289 49.4324 47.6018 47.5178C47.0997 46.6303 47.2872 45.4615 48.108 44.7865ZM54.9705 34.1907C53.0184 33.4928 52.4289 30.8407 54.0059 29.3949C53.2497 27.724 52.3559 26.0803 51.3393 24.4928C49.6934 25.9865 47.9518 27.322 46.1289 28.5011C46.2539 31.4261 46.0622 34.3636 45.5497 37.2657C46.3372 37.7511 46.5476 38.8365 46.0039 39.572C47.1164 41.1074 48.1122 42.7053 48.9851 44.3532C49.4184 44.249 49.8768 44.2865 50.2934 44.4532C52.4914 41.524 54.1622 37.924 54.9705 34.1907ZM55.5664 28.6636C55.5664 26.424 55.2851 24.2282 54.7414 22.1074C54.4393 22.124 54.1414 22.0761 53.8747 21.972C53.2914 22.6095 52.6851 23.2199 52.0684 23.8095C53.1226 25.4428 54.0518 27.1345 54.8414 28.8615C55.0747 28.7636 55.3205 28.6949 55.5664 28.6636ZM50.6184 36.097C49.2664 35.7199 48.6976 37.7824 50.0497 38.1574C51.3955 38.5345 51.9705 36.472 50.6184 36.097ZM30.2455 34.8553C31.9893 35.1303 32.4122 32.474 30.6684 32.197C28.9247 31.922 28.5018 34.5782 30.2455 34.8553ZM30.4851 46.0553C28.2789 45.4449 27.3434 48.8115 29.5559 49.422C31.7643 50.0324 32.6934 46.6657 30.4851 46.0553ZM20.1205 17.4157C18.2622 16.899 17.4726 19.7386 19.3372 20.2553C21.1955 20.7657 21.9789 17.9282 20.1205 17.4157Z"/>
</mask>
<path d="M13.6434 36.9574C11.7789 38.8678 8.87678 36.0386 10.7414 34.124C12.6039 32.2136 15.5059 35.047 13.6434 36.9574ZM55.9789 34.3595C55.1747 38.147 53.5559 41.8011 51.1247 45.0386C52.7518 46.922 50.3476 49.6199 48.2893 48.2532C46.1872 50.2949 43.833 51.9324 41.333 53.1657C42.1789 56.6574 37.2351 58.3782 35.6851 55.1845C33.758 55.6553 31.7705 55.9199 29.7497 55.9574C28.7059 58.4886 24.958 58.1595 24.3476 55.5178C21.6497 55.022 18.9184 54.0824 16.5351 52.8365C14.2059 54.7615 10.808 52.5074 11.733 49.6261C8.76219 47.1407 6.37678 44.0824 4.69136 40.6386C1.63719 41.2011 0.06011 37.0157 2.77053 35.4449C2.02886 32.574 1.74761 29.5574 1.99136 26.5032C-1.17531 25.5261 -0.377391 20.6199 3.05803 20.8199C4.68094 15.3803 7.86011 10.8136 11.9664 7.47196C10.1809 3.98655 14.708 0.519879 17.5893 3.32821C17.7289 3.46363 17.8497 3.60946 17.9643 3.76155C22.3122 1.78863 27.1934 0.942796 32.1518 1.48655C33.0747 -0.936371 36.7184 -0.221788 36.6664 2.36155C37.9768 2.72821 39.2664 3.19696 40.5184 3.76571C41.7601 2.44696 43.8997 3.64696 43.4976 5.34279C44.208 5.77613 44.908 6.25529 45.5914 6.7678C47.2143 7.97821 48.7226 9.3928 50.033 10.922C51.4539 10.3803 52.7997 12.0865 51.8809 13.3386C52.8268 14.7324 53.6289 16.1949 54.2934 17.7074C56.6622 17.3574 57.8268 20.6199 55.7122 21.822C56.2914 24.0761 56.5789 26.3928 56.5726 28.7115C59.8247 29.4574 59.3143 34.3115 55.9789 34.3595ZM49.1559 13.0574C48.0768 13.1928 46.9955 13.3803 45.9247 13.6053C45.9726 14.1011 45.9143 14.6074 45.7539 15.0824C48.1809 16.0282 50.5393 17.222 52.7851 18.6574L53.3539 18.0886C52.9872 17.2595 52.5809 16.4449 52.1372 15.6574C51.8039 15.0678 51.4434 14.4865 51.0622 13.924C50.3309 14.1428 49.4809 13.7782 49.1559 13.0574ZM26.9726 25.2449C30.158 26.3928 33.2372 27.9595 36.1289 29.947C36.2476 29.8428 36.3789 29.7553 36.5101 29.6824C35.408 26.6449 33.9268 23.7115 32.058 20.9699C31.483 21.2199 30.8039 21.1636 30.2726 20.7928C29.0184 21.749 27.8143 22.7865 26.6601 23.9095C26.9101 24.3157 27.0143 24.7865 26.9726 25.2449ZM38.9684 13.1053C39.0247 12.8595 39.1143 12.6136 39.2289 12.3845C36.1643 10.4324 32.8914 8.94488 29.5143 7.92196C28.7789 8.90738 28.0955 9.91988 27.4643 10.949C27.9497 11.2886 28.3247 11.7845 28.5018 12.399C32.0059 12.1865 35.5226 12.4199 38.9684 13.1053ZM38.8684 14.0865C35.4872 13.4011 32.0372 13.1678 28.6018 13.3803C28.5643 13.8407 28.4143 14.2886 28.1539 14.6907C29.0601 15.6095 29.9164 16.5595 30.7205 17.5407C31.358 17.322 32.1101 17.4574 32.6164 17.9699C34.6455 16.6907 36.7705 15.6053 38.9518 14.7178C38.9059 14.5136 38.8789 14.299 38.8684 14.0865ZM23.2455 14.0865C16.8934 15.3595 10.8039 18.2095 5.59344 22.6136C5.71844 22.9115 5.79136 23.2303 5.80803 23.549C11.4664 22.4949 17.2851 22.6407 22.9122 24.024C23.0059 23.847 23.1268 23.6803 23.2726 23.5324C23.9976 22.7928 25.1309 22.6824 25.9705 23.2157C27.1455 22.072 28.3726 21.0115 29.6455 20.0407C29.3643 19.4157 29.4476 18.6574 29.9122 18.1095C29.1497 17.1803 28.3351 16.2782 27.4747 15.4053C26.0122 16.4657 23.8414 15.7824 23.2455 14.0865ZM37.4497 29.3845C37.7934 29.347 38.1372 29.3886 38.4726 29.499C40.2518 25.647 41.3851 21.5699 41.8539 17.4365C40.8164 17.274 39.8184 16.5865 39.3018 15.6365C37.1664 16.5032 35.0955 17.5615 33.1122 18.8199C33.2414 19.3365 33.1476 19.8949 32.8289 20.349C34.7705 23.1949 36.3101 26.2324 37.4497 29.3845ZM39.3226 30.0011C39.558 30.2136 39.7414 30.4657 39.8705 30.7303C41.6768 29.947 43.4309 29.0303 45.1226 27.9699C44.9184 24.3886 44.2351 20.8407 43.0643 17.4157C42.9914 17.4324 42.9184 17.4428 42.8455 17.4532C42.3601 21.7595 41.1872 26.0011 39.3226 30.0011ZM39.8705 32.8553C41.4059 34.197 42.8143 35.6324 44.0997 37.1407C44.2559 37.072 44.4226 37.0365 44.5955 37.0261C45.0539 34.4011 45.2414 31.7428 45.1684 29.097C43.5351 30.0886 41.8497 30.9553 40.1101 31.697C40.1268 32.0928 40.0476 32.4907 39.8705 32.8553ZM46.0664 27.3636C47.7164 26.2636 49.2976 25.0303 50.7893 23.6574C49.0726 21.1157 47.033 18.7261 44.7309 16.6115C44.4997 16.8095 44.2559 16.9782 43.9934 17.1074C45.1268 20.4386 45.8205 23.8824 46.0664 27.3636ZM51.5164 22.974C52.0372 22.474 52.5497 21.9574 53.0455 21.4199C52.5914 20.9449 52.3309 20.2803 52.4289 19.5865C50.2476 18.1782 47.9622 17.0032 45.6018 16.074C47.8414 18.1678 49.8289 20.5011 51.5164 22.974ZM42.5851 6.50113C42.7934 7.81779 42.9393 9.13655 43.0184 10.4574C44.1872 10.6615 45.258 11.5282 45.6955 12.6511C46.808 12.4157 47.9247 12.222 49.0476 12.0824C49.083 11.899 49.1559 11.7157 49.2601 11.5532C47.4809 9.4553 45.3622 7.64488 43.0122 6.19904C42.883 6.32405 42.7414 6.42821 42.5851 6.50113ZM36.2372 3.6678C38.1434 5.8553 39.7726 8.1928 41.1289 10.647C41.4205 10.5303 41.7247 10.4574 42.0372 10.4261C41.958 9.1678 41.8184 7.92196 41.6184 6.67405C40.6434 6.56988 39.9289 5.60946 40.0893 4.64904C38.9268 4.12196 37.7101 3.67821 36.4476 3.3178C36.3851 3.43863 36.3164 3.55738 36.2372 3.6678ZM30.158 7.09071C33.5039 8.14071 36.7434 9.63238 39.7872 11.5699L40.2789 11.122C38.958 8.7303 37.3705 6.4553 35.5226 4.3303C34.6205 4.85738 33.5393 4.66988 32.8184 4.05321L30.158 7.09071ZM18.4393 4.6428C18.5122 4.84279 18.5643 5.04488 18.6018 5.25321C22.1497 5.30113 25.6997 5.81363 29.1455 6.79488L32.208 3.26571C32.0934 3.01988 32.0268 2.75321 32.0059 2.4678C27.3851 1.98655 22.7184 2.7178 18.4393 4.6428ZM18.3143 7.37821C20.3018 8.43238 22.2226 9.65946 24.0497 11.0678C24.7809 10.4428 25.7309 10.297 26.5705 10.5303C27.1726 9.54488 27.8143 8.57821 28.508 7.63446C25.2768 6.74696 21.958 6.28238 18.633 6.23446C18.5955 6.62613 18.4872 7.01363 18.3143 7.37821ZM4.04969 21.0532L5.06219 21.7803C10.3914 17.3011 16.6122 14.4095 23.0893 13.1157C23.0997 12.672 23.2143 12.2282 23.4351 11.8303C21.633 10.4428 19.7393 9.23238 17.7705 8.20321C16.4039 9.75321 13.9872 9.80113 12.5559 8.30321C8.53303 11.6115 5.48511 16.272 4.04969 21.0532ZM23.0851 26.3303C22.7872 25.9282 22.6455 25.449 22.6559 24.9678C17.0768 23.6011 11.2934 23.4803 5.68719 24.5657C5.31636 25.8136 4.16428 26.5824 2.96844 26.6282C2.74344 29.5261 3.00594 32.3865 3.69969 35.1095C6.72053 34.5886 8.27678 38.7011 5.61428 40.2886C7.20178 43.5095 9.43094 46.3782 12.1914 48.7282C12.608 48.1595 13.2309 47.7303 13.9976 47.574C14.8643 39.9699 17.8914 32.5574 23.0851 26.3303ZM17.4414 49.5115C25.0268 46.4532 31.8122 40.7782 36.2059 33.7011C35.2934 32.9865 35.033 31.722 35.5226 30.7261C32.7205 28.8053 29.7393 27.2907 26.6539 26.1803C26.0643 27.1345 24.8018 27.4636 23.8309 26.9678C18.7997 33.0011 15.8559 40.174 14.983 47.5386C16.0747 47.674 17.0726 48.4678 17.4414 49.5115ZM37.8518 34.2074C37.5955 34.222 37.3393 34.2011 37.0934 34.1345C32.5539 41.4886 25.5059 47.3615 17.6205 50.497C17.6247 51.0865 17.4684 51.6199 17.1914 52.0678C19.3684 53.1865 21.8434 54.0365 24.2914 54.5053C24.7455 50.9615 30.0789 51.3949 29.9539 54.9699C31.8059 54.9178 33.633 54.674 35.408 54.2449C35.2351 52.674 36.3434 51.0615 38.1018 50.8845C39.2018 45.372 39.1143 39.6824 37.8518 34.2074ZM39.2705 50.999C41.4101 47.5532 42.9664 43.8532 43.9476 40.0365C43.1434 39.6032 42.8726 38.5386 43.3476 37.7782C42.1039 36.3157 40.7476 34.9324 39.2664 33.6386C39.1184 33.7636 38.9622 33.8678 38.7955 33.9574C40.0893 39.5365 40.1934 45.3407 39.0934 50.9574C39.1497 50.9615 39.2122 50.9782 39.2705 50.999ZM48.108 44.7865C47.2559 43.1907 46.2914 41.6345 45.2101 40.147C45.1122 40.1782 45.0122 40.2053 44.9122 40.2157C43.9205 44.1199 42.3351 47.9095 40.158 51.4365L40.9205 52.2407C43.3726 51.024 45.6289 49.4324 47.6018 47.5178C47.0997 46.6303 47.2872 45.4615 48.108 44.7865ZM54.9705 34.1907C53.0184 33.4928 52.4289 30.8407 54.0059 29.3949C53.2497 27.724 52.3559 26.0803 51.3393 24.4928C49.6934 25.9865 47.9518 27.322 46.1289 28.5011C46.2539 31.4261 46.0622 34.3636 45.5497 37.2657C46.3372 37.7511 46.5476 38.8365 46.0039 39.572C47.1164 41.1074 48.1122 42.7053 48.9851 44.3532C49.4184 44.249 49.8768 44.2865 50.2934 44.4532C52.4914 41.524 54.1622 37.924 54.9705 34.1907ZM55.5664 28.6636C55.5664 26.424 55.2851 24.2282 54.7414 22.1074C54.4393 22.124 54.1414 22.0761 53.8747 21.972C53.2914 22.6095 52.6851 23.2199 52.0684 23.8095C53.1226 25.4428 54.0518 27.1345 54.8414 28.8615C55.0747 28.7636 55.3205 28.6949 55.5664 28.6636ZM50.6184 36.097C49.2664 35.7199 48.6976 37.7824 50.0497 38.1574C51.3955 38.5345 51.9705 36.472 50.6184 36.097ZM30.2455 34.8553C31.9893 35.1303 32.4122 32.474 30.6684 32.197C28.9247 31.922 28.5018 34.5782 30.2455 34.8553ZM30.4851 46.0553C28.2789 45.4449 27.3434 48.8115 29.5559 49.422C31.7643 50.0324 32.6934 46.6657 30.4851 46.0553ZM20.1205 17.4157C18.2622 16.899 17.4726 19.7386 19.3372 20.2553C21.1955 20.7657 21.9789 17.9282 20.1205 17.4157Z" fill="#0D72FF" stroke="#0D72FF" stroke-width="1.06667" mask="url(#path-1-inside-1_84_1780)"/>
<path d="M74.9692 12.15L79.4284 23.175H77.3015L76.5575 21.1577L76.4932 20.9833H76.3073H71.699H71.5118L71.4482 21.1594L70.7201 23.175H68.6564L72.9726 12.15H74.9692ZM74.2409 14.8496L73.9892 14.1651L73.74 14.8505L72.24 18.9755L72.1099 19.3333H72.4906H75.5073H75.8895L75.7576 18.9746L74.2409 14.8496Z" fill="#0D72FF" stroke="#0D72FF" stroke-width="0.533333"/>
<path d="M84.658 21.0622L84.2845 21.5015H84.8612H87.9529V23.1765H80.7862V23.0338C81.6622 22.0164 82.3995 21.1553 82.998 20.4489L82.9988 20.448C83.6105 19.7193 84.1047 19.11 84.4807 18.6228L84.4811 18.6222C84.8539 18.1363 85.1476 17.726 85.3546 17.3919L85.3554 17.3906C85.5617 17.0532 85.7084 16.7488 85.7843 16.4831L85.7846 16.4819C85.8572 16.2233 85.8945 15.9678 85.8945 15.7182C85.8945 15.2765 85.7579 14.8961 85.4664 14.6046C85.1764 14.3146 84.8011 14.1765 84.3695 14.1765C83.9256 14.1765 83.5419 14.3187 83.2476 14.613C82.9643 14.8963 82.8253 15.2617 82.8122 15.6849H80.9863C80.9911 15.0681 81.1276 14.5279 81.3928 14.0587C81.6683 13.5808 82.0515 13.2029 82.5491 12.9263L82.5491 12.9263L82.5509 12.9253C83.0415 12.6477 83.6341 12.5015 84.3362 12.5015C85.0147 12.5015 85.603 12.6432 86.1085 12.919L86.1085 12.919L86.1099 12.9197C86.6194 13.1938 87.0128 13.5651 87.2997 14.0395L87.2997 14.0395L87.3005 14.0409C87.5887 14.5111 87.7362 15.0576 87.7362 15.6849C87.7362 15.9999 87.6937 16.3191 87.6114 16.643C87.5286 16.9562 87.3799 17.3171 87.1598 17.7249L87.1594 17.7257C86.9454 18.1257 86.6356 18.5945 86.2245 19.131L86.2235 19.1324C85.8152 19.6727 85.2937 20.3143 84.658 21.0622Z" fill="#0D72FF" stroke="#0D72FF" stroke-width="0.533333"/>
<path d="M95.8676 12.1505L100.327 23.1755H98.1999L97.4559 21.1582L97.3916 20.9838H97.2057H92.5974H92.4102L92.3466 21.1599L91.6185 23.1755H89.5548L93.871 12.1505H95.8676ZM95.1393 14.8501L94.8877 14.1656L94.6385 14.851L93.1385 18.976L93.0083 19.3338H93.3891H96.4057H96.7879L96.656 18.9751L95.1393 14.8501Z" fill="#0D72FF" stroke="#0D72FF" stroke-width="0.533333"/>
<path d="M102.122 23.176V21.1343H104.147V23.176H102.122Z" fill="#0D72FF" stroke="#0D72FF" stroke-width="0.533333"/>
<path d="M115.243 19.0656H112.043V17.6656H117.66C117.625 18.4455 117.482 19.1626 117.235 19.822L117.235 19.8232C116.963 20.5584 116.575 21.1918 116.074 21.7246L116.073 21.7257C115.576 22.2604 114.983 22.6769 114.295 22.9796C113.615 23.2738 112.856 23.424 112.018 23.424C111.204 23.424 110.453 23.2818 109.76 23.002C109.063 22.7149 108.457 22.3154 107.939 21.8013L107.938 21.8006C107.42 21.2902 107.019 20.6819 106.732 19.9742C106.45 19.2712 106.31 18.5075 106.31 17.6823C106.31 16.8414 106.448 16.0754 106.724 15.3811C107.005 14.6798 107.4 14.0723 107.909 13.5522C108.416 13.0349 109.015 12.6321 109.711 12.3456L109.711 12.3456L109.713 12.345C110.405 12.0552 111.155 11.9073 111.968 11.9073C112.893 11.9073 113.74 12.0876 114.516 12.4415C115.297 12.7985 115.948 13.2912 116.471 13.9193C116.924 14.4646 117.243 15.0846 117.431 15.7823H115.37C115.098 15.1817 114.677 14.7002 114.111 14.3408C113.493 13.9449 112.792 13.749 112.018 13.749C111.296 13.749 110.647 13.9178 110.08 14.2626C109.522 14.6001 109.083 15.0624 108.767 15.6472L108.767 15.6472L108.766 15.649C108.452 16.2398 108.301 16.9196 108.301 17.6823C108.301 18.4309 108.45 19.1031 108.756 19.6961L108.756 19.6961L108.757 19.6982C109.067 20.287 109.506 20.7489 110.066 21.0788L110.066 21.0788C110.634 21.4126 111.288 21.574 112.018 21.574C112.813 21.574 113.532 21.3835 114.173 20.9936C114.814 20.6047 115.259 20.0811 115.494 19.4219L115.621 19.0656H115.243Z" fill="#0D72FF" stroke="#0D72FF" stroke-width="0.533333"/>
<path d="M119.974 23.1762V11.5762H121.849V23.1762H119.974Z" fill="#0D72FF" stroke="#0D72FF" stroke-width="0.533333"/>
<path d="M126.321 22.8437C127.004 23.2288 127.785 23.4254 128.673 23.4254C129.541 23.4254 130.314 23.2293 130.999 22.8435C131.687 22.4492 132.226 21.9216 132.618 21.2567C133.008 20.5908 133.206 19.8362 133.206 18.9837C133.206 18.1268 133.008 17.37 132.618 16.7019L126.321 22.8437ZM126.321 22.8437C125.638 22.4495 125.099 21.9218 124.702 21.2563C124.312 20.5905 124.114 19.836 124.114 18.9837C124.114 18.127 124.312 17.3702 124.702 16.7023C125.099 16.033 125.637 15.5081 126.319 15.1248C127.003 14.7451 127.784 14.5504 128.673 14.5504C129.541 14.5504 130.315 14.7447 131.001 15.125C131.687 15.5084 132.225 16.0331 132.617 16.7016L126.321 22.8437ZM130.563 20.9367L130.564 20.9362C131.057 20.429 131.298 19.7711 131.298 18.9837C131.298 18.1985 131.057 17.5385 130.564 17.0311L130.563 17.0307C130.068 16.5238 129.43 16.2754 128.673 16.2754C127.905 16.2754 127.259 16.5226 126.765 17.0307C126.269 17.5386 126.031 18.1991 126.031 18.9837C126.031 19.7704 126.269 20.4287 126.765 20.9365C127.259 21.4447 127.905 21.692 128.673 21.692C129.43 21.692 130.068 21.4436 130.563 20.9367Z" fill="#0D72FF" stroke="#0D72FF" stroke-width="0.533333"/>
<path d="M142.353 15.1224L142.353 15.1224C143.016 15.5049 143.535 16.0287 143.912 16.6973L143.912 16.698C144.292 17.367 144.486 18.1251 144.486 18.9831C144.486 19.8478 144.292 20.6099 143.912 21.2762L143.912 21.2767C143.536 21.9412 143.016 22.4655 142.352 22.8524C141.698 23.2302 140.937 23.4248 140.061 23.4248C139.551 23.4248 139.075 23.3421 138.635 23.1824L138.635 23.1823C138.191 23.0221 137.794 22.7921 137.441 22.4956L137.151 22.2521L137.019 22.6071L136.809 23.1748H135.478V11.5748H137.353V15.0081V15.5167L137.771 15.2275C138.084 15.0111 138.433 14.8457 138.82 14.7303L138.82 14.7303L138.822 14.7298C139.213 14.6108 139.624 14.5498 140.061 14.5498C140.937 14.5498 141.698 14.7444 142.353 15.1224ZM141.243 21.3316L141.244 21.3311C141.652 21.0968 141.973 20.7731 142.208 20.3668L142.208 20.3668L142.21 20.3647C142.444 19.9508 142.561 19.4882 142.561 18.9831C142.561 18.4801 142.444 18.0192 142.209 17.6089C141.974 17.1988 141.654 16.8731 141.246 16.6366C140.838 16.3931 140.374 16.2748 139.861 16.2748C139.355 16.2748 138.891 16.3938 138.477 16.636C138.069 16.8722 137.746 17.1979 137.512 17.6098L137.512 17.6107C137.281 18.0214 137.169 18.4819 137.169 18.9831C137.169 19.4865 137.281 19.9449 137.512 20.3555L137.512 20.3555L137.514 20.3586C137.748 20.7622 138.071 21.082 138.475 21.321L138.475 21.321L138.478 21.3228C138.894 21.5607 139.357 21.6748 139.861 21.6748C140.371 21.6748 140.835 21.5637 141.243 21.3316Z" fill="#0D72FF" stroke="#0D72FF" stroke-width="0.533333"/>
<path d="M153.281 22.4319C152.915 22.7413 152.502 22.9846 152.041 23.1617C151.583 23.337 151.091 23.4273 150.562 23.4273C149.709 23.4273 148.956 23.2316 148.297 22.8475C147.637 22.4542 147.113 21.9269 146.726 21.2608C146.346 20.5953 146.153 19.8338 146.153 18.969C146.153 18.1239 146.345 17.3704 146.726 16.7017C147.114 16.0317 147.636 15.5074 148.295 15.1249C148.955 14.7463 149.708 14.5523 150.562 14.5523C151.101 14.5523 151.602 14.6448 152.065 14.8257L152.065 14.8257L152.066 14.8263C152.531 15.0049 152.946 15.2536 153.312 15.5705L153.623 15.8402L153.742 15.4458L153.943 14.7773H155.278V23.1606H153.855L153.713 22.5729L153.611 22.1534L153.281 22.4319ZM152.134 21.3347L152.135 21.3342C152.547 21.1004 152.872 20.7764 153.102 20.3672C153.337 19.9523 153.453 19.4832 153.453 18.969C153.453 18.4666 153.337 18.0061 153.102 17.5961C152.872 17.1835 152.549 16.8577 152.138 16.6218C151.727 16.3795 151.265 16.2606 150.762 16.2606C150.247 16.2606 149.78 16.3792 149.368 16.6225C148.964 16.8592 148.646 17.1852 148.413 17.5957L148.413 17.5966C148.182 18.0073 148.07 18.4678 148.07 18.969C148.07 19.4816 148.181 19.9464 148.413 20.358L148.413 20.3581L148.414 20.3612C148.648 20.7634 148.966 21.0834 149.367 21.3229L149.367 21.3229L149.37 21.3247C149.782 21.5637 150.248 21.6773 150.762 21.6773C151.263 21.6773 151.723 21.5658 152.134 21.3347Z" fill="#0D72FF" stroke="#0D72FF" stroke-width="0.533333"/>
<path d="M158.138 23.1757V11.5757H160.013V23.1757H158.138Z" fill="#0D72FF" stroke="#0D72FF" stroke-width="0.533333"/>
<path d="M69.0323 39.5764V34.5264H69.7073V39.5764H69.0323Z" fill="#0D72FF" stroke="#0D72FF" stroke-width="0.533333"/>
<path d="M74.5753 36.1023L74.5753 36.1023L74.5764 36.1036C74.8062 36.3655 74.9352 36.7323 74.9352 37.236V39.5777H74.3018V37.4194C74.3018 37.0707 74.236 36.7602 74.061 36.5323C73.8759 36.2911 73.6035 36.186 73.2935 36.186C72.9257 36.186 72.6097 36.3171 72.382 36.5883C72.1565 36.8501 72.0602 37.1913 72.0602 37.5777V39.5777H71.4268V35.8027H71.7832L71.9395 36.173L72.1103 36.5779L72.3906 36.2394C72.5221 36.0806 72.694 35.952 72.9113 35.8542L72.9113 35.8542L72.9146 35.8527C73.127 35.7536 73.359 35.7027 73.6185 35.7027C74.0395 35.7027 74.3493 35.8414 74.5753 36.1023Z" fill="#0D72FF" stroke="#0D72FF" stroke-width="0.533333"/>
<path d="M76.5445 36.2023H76.1581L77.4195 34.8544V35.5356V35.8023H77.6862H78.6112V36.2023H77.7112H77.4445V36.469V38.1523C77.4445 38.4059 77.5123 38.6407 77.6859 38.8207L77.6859 38.8208L77.6893 38.8242C77.8702 39.0051 78.1135 39.0773 78.3779 39.0773H78.6362V39.5773H78.0779C77.6593 39.5773 77.3578 39.4594 77.1414 39.2471C76.9296 39.0312 76.8112 38.728 76.8112 38.3023V36.469V36.2023H76.5445Z" fill="#0D72FF" stroke="#0D72FF" stroke-width="0.533333"/>
<path d="M81.663 39.193C81.9051 39.193 82.1327 39.141 82.3348 39.0257C82.4876 38.942 82.6165 38.8328 82.7195 38.7013H83.3951C83.254 38.9549 83.0669 39.1651 82.8326 39.3346C82.4978 39.5727 82.1113 39.693 81.663 39.693C81.2834 39.693 80.949 39.6057 80.6554 39.4374C80.3567 39.2613 80.1242 39.0248 79.954 38.721L79.954 38.721L79.9531 38.7193C79.7824 38.4198 79.6964 38.0807 79.6964 37.693C79.6964 37.3005 79.7827 36.9621 79.9524 36.6679L79.9524 36.6679L79.9537 36.6656C80.1246 36.3624 80.3579 36.1237 80.6567 35.9477L80.6567 35.9477L80.6573 35.9474C80.9503 35.7737 81.2839 35.6846 81.663 35.6846C82.0633 35.6846 82.4034 35.778 82.6899 35.9534C82.9841 36.1355 83.2096 36.3743 83.3704 36.6703L83.3704 36.6703L83.3712 36.6719C83.5358 36.97 83.6214 37.3024 83.6214 37.6763C83.6214 37.7012 83.621 37.7262 83.6204 37.7513H80.613H80.2964L80.3502 38.0633C80.4084 38.4003 80.5491 38.6851 80.7874 38.8937L80.7874 38.8937L80.7923 38.8978C81.0351 39.1001 81.3318 39.193 81.663 39.193ZM80.3869 37.1563L80.3089 37.4846H80.6464H82.7297H83.0956L82.9835 37.1363C82.8848 36.8293 82.726 36.5755 82.4942 36.3998C82.2612 36.2231 81.9779 36.143 81.663 36.143C81.3525 36.143 81.0746 36.2327 80.8405 36.4162C80.6058 36.5992 80.4588 36.8538 80.3869 37.1563Z" fill="#0D72FF" stroke="#0D72FF" stroke-width="0.533333"/>
<path d="M87.0276 35.774H86.9109C86.4385 35.774 86.1076 35.9305 85.8791 36.2219L85.5927 36.5872L85.4214 36.1557L85.2799 35.799H84.9776V39.574H85.6109V37.599C85.6109 37.225 85.6824 36.8923 85.8869 36.6632C85.887 36.6631 85.887 36.6631 85.8871 36.663L86.0859 36.8407C86.2234 36.6865 86.4609 36.6073 86.7943 36.6073L87.0276 35.774ZM87.0276 35.774V36.3407V35.774Z" fill="#0D72FF" stroke="#0D72FF" stroke-width="0.533333"/>
<path d="M91.3721 36.1023L91.3721 36.1023L91.3733 36.1036C91.6031 36.3655 91.732 36.7323 91.732 37.236V39.5777H91.0987V37.4194C91.0987 37.0707 91.0328 36.7602 90.8579 36.5323C90.6728 36.2911 90.4003 36.186 90.0904 36.186C89.7225 36.186 89.4066 36.3171 89.1789 36.5883C88.9533 36.8501 88.857 37.1913 88.857 37.5777V39.5777H88.2237V35.8027H88.5801L88.7363 36.173L88.9072 36.5779L89.1874 36.2394C89.319 36.0806 89.4909 35.952 89.7081 35.8542L89.7081 35.8542L89.7115 35.8527C89.9239 35.7536 90.1559 35.7027 90.4154 35.7027C90.8364 35.7027 91.1462 35.8414 91.3721 36.1023Z" fill="#0D72FF" stroke="#0D72FF" stroke-width="0.533333"/>
<path d="M95.0513 39.6915C94.6654 39.6915 94.3264 39.6042 94.0261 39.4354C93.7277 39.2592 93.4926 39.0223 93.3159 38.7171C93.1459 38.4184 93.0596 38.0755 93.0596 37.6832C93.0596 37.2909 93.1459 36.9526 93.3154 36.6585C93.4923 36.3546 93.7277 36.1197 94.0262 35.9475L94.0262 35.9475L94.0271 35.947C94.327 35.7725 94.6655 35.6832 95.0513 35.6832C95.297 35.6832 95.5222 35.7255 95.7291 35.8065L95.7291 35.8065L95.7322 35.8077C95.9408 35.8864 96.1274 35.9971 96.2919 36.1418L96.604 36.4161L96.7234 36.0181L96.7914 35.7915H97.193V39.5665H96.7534L96.7107 39.3878L96.6091 38.9633L96.2778 39.2474C96.1129 39.3887 95.926 39.4978 95.7174 39.5746L95.7174 39.5746L95.716 39.5752C95.514 39.6509 95.2917 39.6915 95.0513 39.6915ZM95.8813 38.941L95.8813 38.941L95.8824 38.9404C96.1006 38.8172 96.2759 38.6451 96.4005 38.422C96.5255 38.2004 96.5846 37.9523 96.5846 37.6832C96.5846 37.4153 96.5252 37.1677 96.4008 36.9449L96.4008 36.9449L96.4002 36.9437C96.2766 36.7249 96.1025 36.5506 95.8839 36.4268C95.6632 36.2988 95.4173 36.2332 95.1513 36.2332C94.8792 36.2332 94.6307 36.2978 94.4104 36.4268C94.1883 36.5514 94.0169 36.7262 93.8941 36.9437L93.8941 36.9437L93.8934 36.9449C93.7691 37.1677 93.7096 37.4153 93.7096 37.6832C93.7096 37.9526 93.7689 38.2008 93.8941 38.4226L93.8941 38.4226L93.8955 38.425C94.0186 38.6379 94.1894 38.811 94.4089 38.9387L94.4089 38.9387L94.4118 38.9404C94.6336 39.0656 94.8819 39.1248 95.1513 39.1248C95.4141 39.1248 95.6594 39.0649 95.8813 38.941Z" fill="#0D72FF" stroke="#0D72FF" stroke-width="0.533333"/>
<path d="M98.8492 36.2023H98.4628L99.7242 34.8544V35.5356V35.8023H99.9909H100.916V36.2023H100.016H99.7492V36.469V38.1523C99.7492 38.4059 99.817 38.6407 99.9906 38.8207L99.9906 38.8208L99.994 38.8242C100.175 39.0051 100.418 39.0773 100.683 39.0773H100.941V39.5773H100.383C99.964 39.5773 99.6625 39.4594 99.4461 39.2471C99.2343 39.0312 99.1159 38.728 99.1159 38.3023V36.469V36.2023H98.8492Z" fill="#0D72FF" stroke="#0D72FF" stroke-width="0.533333"/>
<path d="M102.278 34.6922V34.1422H102.912V34.6922H102.278ZM102.278 39.5755V35.8005H102.912V39.5755H102.278Z" fill="#0D72FF" stroke="#0D72FF" stroke-width="0.533333"/>
<path d="M105.267 35.9492L105.267 35.9492L105.268 35.9487C105.579 35.7734 105.933 35.6832 106.337 35.6832C106.733 35.6832 107.082 35.7731 107.388 35.948L107.388 35.9481L107.392 35.9499C107.705 36.1233 107.949 36.3585 108.123 36.6589L108.123 36.6589L108.124 36.6602C108.297 36.9542 108.387 37.2961 108.387 37.6915C108.387 38.0773 108.298 38.4158 108.123 38.7157L108.123 38.7163C107.948 39.0187 107.705 39.2561 107.39 39.4338C107.084 39.6034 106.733 39.6915 106.337 39.6915C105.933 39.6915 105.578 39.6033 105.267 39.4337C104.958 39.2562 104.713 39.0185 104.534 38.715C104.36 38.4153 104.271 38.077 104.271 37.6915C104.271 37.2963 104.36 36.9546 104.533 36.6606C104.713 36.3584 104.957 36.1227 105.267 35.9492ZM105.315 36.6446L105.315 36.6446L105.314 36.6464C105.043 36.9224 104.921 37.2819 104.921 37.6915C104.921 38.0984 105.044 38.4532 105.314 38.7282L105.314 38.7282L105.315 38.7301C105.587 39.0022 105.935 39.1332 106.337 39.1332C106.735 39.1332 107.076 39.0013 107.343 38.7291C107.617 38.4553 107.746 38.1008 107.746 37.6915C107.746 37.2795 107.618 36.9202 107.343 36.6455C107.076 36.3734 106.735 36.2415 106.337 36.2415C105.935 36.2415 105.587 36.3725 105.315 36.6446Z" fill="#0D72FF" stroke="#0D72FF" stroke-width="0.533333"/>
<path d="M112.919 36.1018L112.919 36.1018L112.92 36.1031C113.15 36.3651 113.279 36.7318 113.279 37.2355V39.5772H112.646V37.4189C112.646 37.0702 112.58 36.7597 112.405 36.5318C112.22 36.2906 111.947 36.1855 111.637 36.1855C111.269 36.1855 110.953 36.3166 110.726 36.5878C110.5 36.8496 110.404 37.1908 110.404 37.5772V39.5772H109.771V35.8022H110.127L110.283 36.1725L110.454 36.5775L110.734 36.2389C110.866 36.0801 111.038 35.9515 111.255 35.8537L111.255 35.8537L111.258 35.8522C111.471 35.7531 111.703 35.7022 111.962 35.7022C112.383 35.7022 112.693 35.8409 112.919 36.1018Z" fill="#0D72FF" stroke="#0D72FF" stroke-width="0.533333"/>
<path d="M116.579 39.6925C116.193 39.6925 115.854 39.6052 115.553 39.4364C115.255 39.2602 115.02 39.0233 114.843 38.7181C114.673 38.4193 114.587 38.0765 114.587 37.6841C114.587 37.2919 114.673 36.9536 114.843 36.6595C115.02 36.3556 115.255 36.1206 115.554 35.9485L115.554 35.9485L115.554 35.948C115.854 35.7735 116.193 35.6841 116.579 35.6841C116.824 35.6841 117.05 35.7265 117.256 35.8075L117.256 35.8075L117.26 35.8087C117.468 35.8873 117.655 35.9981 117.819 36.1428L118.131 36.4171L118.251 36.0191L118.319 35.7925H118.72V39.5675H118.281L118.238 39.3888L118.136 38.9643L117.805 39.2483C117.64 39.3897 117.453 39.4988 117.245 39.5756L117.245 39.5756L117.243 39.5761C117.041 39.6519 116.819 39.6925 116.579 39.6925ZM117.409 38.942L117.409 38.942L117.41 38.9413C117.628 38.8182 117.803 38.6461 117.928 38.423C118.053 38.2014 118.112 37.9533 118.112 37.6841C118.112 37.4163 118.053 37.1687 117.928 36.9459L117.928 36.9458L117.928 36.9447C117.804 36.7258 117.63 36.5516 117.411 36.4278C117.191 36.2998 116.945 36.2341 116.679 36.2341C116.407 36.2341 116.158 36.2988 115.938 36.4278C115.716 36.5523 115.544 36.7272 115.421 36.9447L115.421 36.9447L115.421 36.9458C115.296 37.1687 115.237 37.4163 115.237 37.6841C115.237 37.9536 115.296 38.2018 115.421 38.4236L115.421 38.4236L115.423 38.426C115.546 38.6389 115.717 38.812 115.936 38.9397L115.936 38.9397L115.939 38.9413C116.161 39.0666 116.409 39.1258 116.679 39.1258C116.941 39.1258 117.187 39.0659 117.409 38.942Z" fill="#0D72FF" stroke="#0D72FF" stroke-width="0.533333"/>
<path d="M120.372 39.5751V34.2501H121.005V39.5751H120.372Z" fill="#0D72FF" stroke="#0D72FF" stroke-width="0.533333"/>
<path d="M126.266 39.693C125.88 39.693 125.541 39.6056 125.241 39.4369C124.943 39.2607 124.707 39.0238 124.531 38.7186C124.361 38.4198 124.274 38.077 124.274 37.6846C124.274 37.2923 124.361 36.9541 124.53 36.66C124.707 36.3561 124.943 36.1211 125.241 35.949L125.241 35.949L125.242 35.9485C125.542 35.774 125.88 35.6846 126.266 35.6846C126.512 35.6846 126.737 35.727 126.944 35.808L126.944 35.808L126.947 35.8091C127.156 35.8878 127.342 35.9986 127.507 36.1432L127.819 36.4176L127.938 36.0196L128.006 35.793H128.408V39.568H127.968L127.926 39.3893L127.824 38.9648L127.493 39.2488C127.328 39.3902 127.141 39.4992 126.932 39.5761L126.932 39.5761L126.931 39.5766C126.729 39.6524 126.507 39.693 126.266 39.693ZM127.096 38.9425L127.096 38.9425L127.097 38.9418C127.315 38.8187 127.491 38.6466 127.615 38.4235C127.74 38.2019 127.799 37.9538 127.799 37.6846C127.799 37.4168 127.74 37.1692 127.616 36.9463L127.616 36.9463L127.615 36.9452C127.491 36.7263 127.317 36.5521 127.099 36.4283C126.878 36.3003 126.632 36.2346 126.366 36.2346C126.094 36.2346 125.846 36.2993 125.625 36.4283C125.403 36.5528 125.232 36.7277 125.109 36.9452L125.109 36.9452L125.108 36.9463C124.984 37.1692 124.924 37.4168 124.924 37.6846C124.924 37.954 124.984 38.2023 125.109 38.4241L125.109 38.4241L125.11 38.4265C125.233 38.6394 125.404 38.8125 125.624 38.9402L125.624 38.9402L125.627 38.9418C125.848 39.0671 126.097 39.1263 126.366 39.1263C126.629 39.1263 126.874 39.0663 127.096 38.9425Z" fill="#0D72FF" stroke="#0D72FF" stroke-width="0.533333"/>
<path d="M133.012 38.4082H133.671C133.603 38.6024 133.508 38.7786 133.387 38.9386L133.386 38.9391C133.206 39.1776 132.981 39.3611 132.708 39.4931L132.708 39.4931L132.707 39.4937C132.441 39.624 132.14 39.6915 131.799 39.6915C131.414 39.6915 131.072 39.6024 130.765 39.427C130.46 39.2505 130.223 39.0135 130.047 38.7086C129.871 38.4015 129.782 38.0602 129.782 37.6748C129.782 37.2845 129.872 36.9467 130.045 36.6521C130.222 36.3548 130.459 36.1214 130.764 35.9485L130.764 35.9486L130.765 35.948C131.071 35.7728 131.417 35.6832 131.807 35.6832C132.142 35.6832 132.442 35.7487 132.71 35.8741C132.977 36.0024 133.2 36.1802 133.379 36.4125C133.494 36.562 133.584 36.7269 133.65 36.9082H133.007C132.895 36.7253 132.748 36.5734 132.567 36.4582C132.338 36.3123 132.079 36.2415 131.799 36.2415C131.544 36.2415 131.31 36.3091 131.101 36.4391C130.894 36.5642 130.729 36.738 130.608 36.952L130.608 36.952L130.607 36.9539C130.486 37.1734 130.432 37.4196 130.432 37.6832C130.432 37.9436 130.486 38.1885 130.606 38.4101L130.606 38.4101L130.608 38.4131C130.728 38.6294 130.892 38.8047 131.098 38.9337C131.31 39.0684 131.545 39.1332 131.799 39.1332C132.084 39.1332 132.346 39.0597 132.575 38.9031L132.575 38.9031L132.579 38.8998C132.756 38.7729 132.9 38.6064 133.012 38.4082Z" fill="#0D72FF" stroke="#0D72FF" stroke-width="0.533333"/>
<path d="M138.004 38.4091H138.663C138.595 38.6034 138.5 38.7796 138.379 38.9395L138.378 38.94C138.198 39.1786 137.973 39.3621 137.7 39.494L137.7 39.494L137.699 39.4947C137.433 39.625 137.132 39.6925 136.791 39.6925C136.406 39.6925 136.065 39.6033 135.757 39.428C135.452 39.2515 135.215 39.0145 135.039 38.7096C134.864 38.4024 134.774 38.0612 134.774 37.6758C134.774 37.2855 134.864 36.9477 135.037 36.6531C135.214 36.3557 135.451 36.1223 135.756 35.9495L135.756 35.9495L135.757 35.949C136.063 35.7738 136.409 35.6841 136.799 35.6841C137.134 35.6841 137.434 35.7496 137.702 35.8751C137.969 36.0034 138.192 36.1812 138.371 36.4134C138.486 36.563 138.577 36.7279 138.643 36.9091H137.999C137.887 36.7263 137.74 36.5744 137.559 36.4592C137.33 36.3133 137.071 36.2425 136.791 36.2425C136.536 36.2425 136.302 36.3101 136.094 36.4401C135.886 36.5652 135.721 36.739 135.601 36.953L135.601 36.953L135.6 36.9549C135.478 37.1744 135.424 37.4206 135.424 37.6841C135.424 37.9446 135.478 38.1895 135.598 38.4111L135.598 38.4111L135.6 38.4141C135.721 38.6304 135.884 38.8057 136.09 38.9347C136.302 39.0694 136.538 39.1341 136.791 39.1341C137.076 39.1341 137.339 39.0607 137.567 38.904L137.567 38.9041L137.572 38.9008C137.748 38.7739 137.892 38.6074 138.004 38.4091Z" fill="#0D72FF" stroke="#0D72FF" stroke-width="0.533333"/>
<path d="M140.744 35.9507L140.744 35.9507L140.745 35.9502C141.055 35.7749 141.409 35.6846 141.814 35.6846C142.209 35.6846 142.559 35.7746 142.865 35.9495L142.865 35.9495L142.868 35.9513C143.182 36.1248 143.425 36.36 143.6 36.6604L143.6 36.6604L143.601 36.6616C143.774 36.9557 143.864 37.2976 143.864 37.693C143.864 38.0788 143.774 38.4173 143.6 38.7172L143.6 38.7178C143.425 39.0201 143.181 39.2575 142.867 39.4352C142.56 39.6048 142.21 39.693 141.814 39.693C141.409 39.693 141.055 39.6047 140.744 39.4352C140.434 39.2577 140.19 39.02 140.011 38.7165C139.836 38.4167 139.747 38.0784 139.747 37.693C139.747 37.2977 139.837 36.956 140.01 36.662C140.19 36.3599 140.434 36.1241 140.744 35.9507ZM140.792 36.6461L140.792 36.6461L140.79 36.6479C140.519 36.9238 140.397 37.2834 140.397 37.693C140.397 38.0999 140.52 38.4547 140.79 38.7297L140.79 38.7297L140.792 38.7315C141.064 39.0037 141.412 39.1346 141.814 39.1346C142.211 39.1346 142.553 39.0027 142.82 38.7306C143.093 38.4568 143.222 38.1023 143.222 37.693C143.222 37.281 143.094 36.9217 142.82 36.647C142.553 36.3749 142.211 36.243 141.814 36.243C141.412 36.243 141.064 36.3739 140.792 36.6461Z" fill="#0D72FF" stroke="#0D72FF" stroke-width="0.533333"/>
<path d="M146.001 39.4831L146.001 39.4828C145.737 39.3447 145.535 39.1541 145.39 38.9094C145.251 38.6693 145.177 38.3778 145.177 38.0273V35.8023H145.81V37.894C145.81 38.242 145.896 38.5522 146.101 38.7866L146.101 38.7866L146.103 38.7881C146.316 39.0276 146.607 39.1356 146.935 39.1356C147.266 39.1356 147.559 39.0285 147.77 38.7854L147.77 38.7854L147.772 38.783C147.974 38.545 148.06 38.238 148.06 37.894V35.8023H148.685V38.0273C148.685 38.3782 148.61 38.67 148.471 38.9102L148.471 38.911C148.33 39.1548 148.131 39.3451 147.869 39.4831L147.869 39.4831L147.868 39.4838C147.613 39.6201 147.303 39.694 146.935 39.694C146.572 39.694 146.261 39.6203 146.001 39.4831Z" fill="#0D72FF" stroke="#0D72FF" stroke-width="0.533333"/>
<path d="M153.439 36.0994L153.439 36.0994L153.44 36.1006C153.67 36.3626 153.798 36.7293 153.798 37.2331V39.5748H153.165V37.4164C153.165 37.0677 153.099 36.7573 152.924 36.5294C152.739 36.2881 152.467 36.1831 152.157 36.1831C151.789 36.1831 151.473 36.3142 151.245 36.5853C151.02 36.8472 150.923 37.1884 150.923 37.5748V39.5748H150.29V35.7998H150.647L150.803 36.1701L150.974 36.575L151.254 36.2365C151.385 36.0776 151.557 35.949 151.775 35.8513L151.775 35.8513L151.778 35.8498C151.99 35.7506 152.222 35.6998 152.482 35.6998C152.903 35.6998 153.213 35.8385 153.439 36.0994Z" fill="#0D72FF" stroke="#0D72FF" stroke-width="0.533333"/>
<path d="M155.408 36.2008H155.021L156.283 34.8529V35.5342V35.8008H156.549H157.474V36.2008H156.574H156.308V36.4675V38.1508C156.308 38.4044 156.376 38.6392 156.549 38.8193L156.549 38.8193L156.553 38.8227C156.733 39.0036 156.977 39.0758 157.241 39.0758H157.499V39.5758H156.941C156.523 39.5758 156.221 39.458 156.005 39.2456C155.793 39.0297 155.674 38.7266 155.674 38.3008V36.4675V36.2008H155.408Z" fill="#0D72FF" stroke="#0D72FF" stroke-width="0.533333"/>
<path d="M68.9547 44.2018H68.5683L69.8297 42.8539V43.5352V43.8018H70.0964H71.0214V44.2018H70.1214H69.8547V44.4685V46.1518C69.8547 46.4054 69.9224 46.6402 70.0961 46.8203L70.096 46.8203L70.0995 46.8237C70.2803 47.0046 70.5236 47.0768 70.788 47.0768H71.0464V47.5768H70.488C70.0695 47.5768 69.768 47.4589 69.5516 47.2466C69.3398 47.0307 69.2214 46.7276 69.2214 46.3018V44.4685V44.2018H68.9547Z" fill="#0D72FF" stroke="#0D72FF" stroke-width="0.533333"/>
<path d="M73.0839 43.9492L73.0839 43.9492L73.0848 43.9487C73.3952 43.7734 73.7492 43.6832 74.1536 43.6832C74.5491 43.6832 74.8986 43.7731 75.2047 43.948L75.2047 43.9481L75.2079 43.9499C75.5217 44.1233 75.765 44.3585 75.9398 44.6589L75.9398 44.6589L75.9405 44.6602C76.1137 44.9542 76.2036 45.2961 76.2036 45.6915C76.2036 46.0773 76.1143 46.4158 75.9398 46.7157L75.9395 46.7163C75.7646 47.0187 75.5211 47.2561 75.2068 47.4338C74.9 47.6034 74.5496 47.6915 74.1536 47.6915C73.7492 47.6915 73.3946 47.6033 73.0838 47.4337C72.7739 47.2562 72.5297 47.0185 72.3504 46.715C72.1762 46.4153 72.087 46.077 72.087 45.6915C72.087 45.2963 72.1768 44.9546 72.3498 44.6606C72.5294 44.3584 72.7739 44.1227 73.0839 43.9492ZM73.1318 44.6446L73.1317 44.6446L73.1299 44.6464C72.8593 44.9224 72.737 45.2819 72.737 45.6915C72.737 46.0984 72.8602 46.4532 73.1299 46.7282L73.1299 46.7282L73.1318 46.7301C73.4039 47.0022 73.7515 47.1332 74.1536 47.1332C74.5509 47.1332 74.8924 47.0013 75.1598 46.7291C75.4331 46.4553 75.562 46.1008 75.562 45.6915C75.562 45.2795 75.434 44.9202 75.1598 44.6455C74.8924 44.3734 74.5509 44.2415 74.1536 44.2415C73.7515 44.2415 73.4039 44.3725 73.1318 44.6446Z" fill="#0D72FF" stroke="#0D72FF" stroke-width="0.533333"/>
<path d="M81.188 47.6915C80.8022 47.6915 80.4631 47.6042 80.1628 47.4354C79.8644 47.2592 79.6293 47.0223 79.4526 46.7171C79.2826 46.4184 79.1964 46.0755 79.1964 45.6832C79.1964 45.2909 79.2826 44.9526 79.4521 44.6585C79.629 44.3546 79.8644 44.1197 80.1629 43.9475L80.1629 43.9475L80.1638 43.947C80.4637 43.7725 80.8022 43.6832 81.188 43.6832C81.4337 43.6832 81.6589 43.7255 81.8658 43.8065L81.8658 43.8065L81.8689 43.8077C82.0775 43.8864 82.2641 43.9971 82.4286 44.1418L82.7407 44.4161L82.8601 44.0181L82.9281 43.7915H83.3297V47.5665H82.8901L82.8474 47.3878L82.7459 46.9633L82.4145 47.2474C82.2496 47.3887 82.0627 47.4978 81.8542 47.5746L81.8542 47.5746L81.8527 47.5752C81.6507 47.6509 81.4284 47.6915 81.188 47.6915ZM82.018 46.941L82.018 46.941L82.0191 46.9404C82.2373 46.8172 82.4126 46.6451 82.5372 46.422C82.6622 46.2004 82.7214 45.9523 82.7214 45.6832C82.7214 45.4153 82.6619 45.1677 82.5375 44.9449L82.5375 44.9449L82.5369 44.9437C82.4133 44.7249 82.2393 44.5506 82.0206 44.4268C81.7999 44.2988 81.554 44.2332 81.288 44.2332C81.0159 44.2332 80.7674 44.2978 80.5471 44.4268C80.325 44.5514 80.1536 44.7262 80.0308 44.9437L80.0308 44.9437L80.0302 44.9449C79.9058 45.1677 79.8464 45.4153 79.8464 45.6832C79.8464 45.9526 79.9056 46.2008 80.0308 46.4226L80.0308 46.4226L80.0322 46.425C80.1553 46.6379 80.3261 46.811 80.5457 46.9387L80.5456 46.9387L80.5486 46.9404C80.7703 47.0656 81.0186 47.1248 81.288 47.1248C81.5508 47.1248 81.7961 47.0649 82.018 46.941Z" fill="#0D72FF" stroke="#0D72FF" stroke-width="0.533333"/>
<path d="M87.9301 46.4087H88.5887C88.521 46.6029 88.426 46.7791 88.3046 46.9391L88.3042 46.9395C88.1239 47.1781 87.899 47.3616 87.6259 47.4936L87.6259 47.4936L87.6246 47.4942C87.3586 47.6245 87.0577 47.692 86.7169 47.692C86.3316 47.692 85.9903 47.6028 85.6832 47.4275C85.3782 47.251 85.1413 47.014 84.9648 46.7091C84.7894 46.402 84.7003 46.0607 84.7003 45.6753C84.7003 45.285 84.7898 44.9472 84.9632 44.6526C85.1395 44.3553 85.3765 44.1218 85.6817 43.949L85.6817 43.949L85.6826 43.9485C85.9893 43.7733 86.3347 43.6837 86.7253 43.6837C87.0599 43.6837 87.36 43.7492 87.6276 43.8746C87.8949 44.0029 88.1175 44.1807 88.2972 44.4129C88.4117 44.5625 88.5025 44.7274 88.5684 44.9087H87.9253C87.8127 44.7258 87.6662 44.5739 87.4851 44.4587C87.2558 44.3128 86.9971 44.242 86.7169 44.242C86.4619 44.242 86.2282 44.3096 86.0193 44.4396C85.8116 44.5647 85.6472 44.7385 85.5264 44.9525L85.5264 44.9525L85.5254 44.9544C85.4037 45.1739 85.3503 45.4201 85.3503 45.6837C85.3503 45.9441 85.4041 46.189 85.5241 46.4106L85.524 46.4106L85.5257 46.4136C85.6465 46.6299 85.8102 46.8052 86.0163 46.9342C86.228 47.0689 86.4633 47.1337 86.7169 47.1337C87.0021 47.1337 87.2644 47.0602 87.4928 46.9036L87.4928 46.9036L87.4974 46.9003C87.6742 46.7734 87.8175 46.6069 87.9301 46.4087Z" fill="#0D72FF" stroke="#0D72FF" stroke-width="0.533333"/>
<path d="M92.9262 46.4082H93.5848C93.5171 46.6024 93.4221 46.7786 93.3006 46.9386L93.3003 46.9391C93.12 47.1776 92.895 47.3611 92.622 47.4931L92.622 47.4931L92.6207 47.4937C92.3547 47.624 92.0538 47.6915 91.713 47.6915C91.3277 47.6915 90.9864 47.6024 90.6793 47.427C90.3743 47.2505 90.1374 47.0135 89.9609 46.7086C89.7855 46.4015 89.6964 46.0602 89.6964 45.6748C89.6964 45.2845 89.7859 44.9467 89.9593 44.6521C90.1356 44.3548 90.3726 44.1214 90.6778 43.9485L90.6778 43.9486L90.6787 43.948C90.9854 43.7728 91.3308 43.6832 91.7214 43.6832C92.056 43.6832 92.3561 43.7487 92.6237 43.8741C92.8909 44.0024 93.1136 44.1802 93.2933 44.4125C93.4078 44.562 93.4986 44.7269 93.5645 44.9082H92.9213C92.8088 44.7253 92.6623 44.5734 92.4812 44.4582C92.2519 44.3123 91.9932 44.2415 91.713 44.2415C91.458 44.2415 91.2243 44.3091 91.0154 44.4391C90.8077 44.5642 90.6433 44.738 90.5225 44.952L90.5225 44.952L90.5214 44.9539C90.3998 45.1734 90.3464 45.4196 90.3464 45.6832C90.3464 45.9436 90.4002 46.1885 90.5202 46.4101L90.5201 46.4101L90.5218 46.4131C90.6426 46.6294 90.8063 46.8047 91.0124 46.9337C91.2241 47.0684 91.4594 47.1332 91.713 47.1332C91.9982 47.1332 92.2605 47.0597 92.4889 46.9031L92.4889 46.9031L92.4935 46.8998C92.6703 46.7729 92.8136 46.6064 92.9262 46.4082Z" fill="#0D72FF" stroke="#0D72FF" stroke-width="0.533333"/>
<path d="M95.6659 43.9492L95.6659 43.9492L95.6668 43.9487C95.9772 43.7734 96.3313 43.6832 96.7357 43.6832C97.1311 43.6832 97.4806 43.7731 97.7867 43.948L97.7867 43.9481L97.79 43.9499C98.1037 44.1233 98.347 44.3585 98.5219 44.6589L98.5218 44.6589L98.5226 44.6602C98.6958 44.9542 98.7857 45.2961 98.7857 45.6915C98.7857 46.0773 98.6964 46.4158 98.5219 46.7157L98.5215 46.7163C98.3466 47.0187 98.1031 47.2561 97.7889 47.4338C97.4821 47.6034 97.1317 47.6915 96.7357 47.6915C96.3312 47.6915 95.9766 47.6033 95.6658 47.4337C95.356 47.2562 95.1118 47.0185 94.9324 46.715C94.7582 46.4153 94.669 46.077 94.669 45.6915C94.669 45.2963 94.7588 44.9546 94.9319 44.6606C95.1115 44.3584 95.3559 44.1227 95.6659 43.9492ZM95.7138 44.6446L95.7138 44.6446L95.712 44.6464C95.4413 44.9224 95.319 45.2819 95.319 45.6915C95.319 46.0984 95.4422 46.4532 95.712 46.7282L95.712 46.7282L95.7138 46.7301C95.9859 47.0022 96.3335 47.1332 96.7357 47.1332C97.133 47.1332 97.4745 47.0013 97.7418 46.7291C98.0151 46.4553 98.144 46.1008 98.144 45.6915C98.144 45.2795 98.016 44.9202 97.7418 44.6455C97.4745 44.3734 97.1329 44.2415 96.7357 44.2415C96.3335 44.2415 95.9859 44.3725 95.7138 44.6446Z" fill="#0D72FF" stroke="#0D72FF" stroke-width="0.533333"/>
<path d="M100.923 47.4812L100.922 47.4808C100.659 47.3427 100.457 47.1522 100.312 46.9074C100.173 46.6673 100.099 46.3758 100.099 46.0254V43.8004H100.732V45.892C100.732 46.2401 100.818 46.5503 101.023 46.7846L101.023 46.7846L101.025 46.7862C101.238 47.0257 101.529 47.1337 101.857 47.1337C102.188 47.1337 102.481 47.0266 102.692 46.7834L102.692 46.7834L102.694 46.781C102.895 46.543 102.982 46.236 102.982 45.892V43.8004H103.607V46.0254C103.607 46.3763 103.532 46.668 103.393 46.9083L103.393 46.909C103.252 47.1529 103.053 47.3431 102.791 47.4812L102.791 47.4811L102.79 47.4819C102.535 47.6182 102.225 47.692 101.857 47.692C101.494 47.692 101.183 47.6184 100.923 47.4812Z" fill="#0D72FF" stroke="#0D72FF" stroke-width="0.533333"/>
<path d="M108.36 44.1013L108.36 44.1013L108.362 44.1026C108.591 44.3646 108.72 44.7313 108.72 45.2351V47.5767H108.087V45.4184C108.087 45.0697 108.021 44.7593 107.846 44.5313C107.661 44.2901 107.389 44.1851 107.079 44.1851C106.711 44.1851 106.395 44.3161 106.167 44.5873C105.942 44.8491 105.845 45.1903 105.845 45.5767V47.5767H105.212V43.8017H105.568L105.725 44.172L105.895 44.577L106.176 44.2385C106.307 44.0796 106.479 43.951 106.696 43.8532L106.696 43.8533L106.7 43.8517C106.912 43.7526 107.144 43.7017 107.404 43.7017C107.825 43.7017 108.134 43.8405 108.36 44.1013Z" fill="#0D72FF" stroke="#0D72FF" stroke-width="0.533333"/>
<path d="M110.33 44.2013H109.943L111.205 42.8534V43.5347V43.8013H111.471H112.396V44.2013H111.496H111.23V44.468V46.1513C111.23 46.4049 111.297 46.6397 111.471 46.8198L111.471 46.8198L111.474 46.8232C111.655 47.0041 111.899 47.0763 112.163 47.0763H112.421V47.5763H111.863C111.444 47.5763 111.143 47.4585 110.927 47.2461C110.715 47.0302 110.596 46.7271 110.596 46.3013V44.468V44.2013H110.33Z" fill="#0D72FF" stroke="#0D72FF" stroke-width="0.533333"/>
<path d="M118.779 43.9463L118.779 43.9463L118.781 43.9472C119.077 44.1192 119.31 44.3538 119.483 44.6568L119.483 44.6569L119.485 44.6602C119.658 44.9542 119.748 45.2961 119.748 45.6915C119.748 46.0822 119.658 46.4247 119.484 46.7241L119.484 46.7241L119.483 46.7268C119.31 47.0314 119.077 47.2681 118.781 47.4443C118.485 47.6122 118.147 47.6998 117.756 47.6998C117.56 47.6998 117.374 47.6706 117.197 47.613L117.197 47.6129L117.192 47.6112C117.016 47.5581 116.861 47.4843 116.726 47.3898L116.306 47.0955V47.6082V49.1332H115.673V43.7998H116.018L116.144 44.0461L116.302 44.3563L116.56 44.1225C116.711 43.9857 116.889 43.8776 117.093 43.7992C117.294 43.7236 117.514 43.6832 117.756 43.6832C118.147 43.6832 118.485 43.7727 118.779 43.9463ZM118.395 46.9494L118.395 46.9494L118.4 46.9464C118.616 46.8191 118.789 46.6441 118.913 46.4241C119.041 46.2047 119.106 45.9586 119.106 45.6915C119.106 45.4205 119.041 45.1723 118.913 44.9506C118.789 44.7324 118.615 44.5587 118.397 44.4351C118.177 44.3072 117.931 44.2415 117.665 44.2415C117.392 44.2415 117.143 44.3065 116.922 44.4362C116.708 44.5598 116.536 44.7327 116.41 44.948L116.41 44.9479L116.407 44.9532C116.282 45.176 116.223 45.4237 116.223 45.6915C116.223 45.9558 116.283 46.2018 116.407 46.4226L116.407 46.4226L116.409 46.4255C116.535 46.643 116.707 46.8173 116.919 46.9449L116.919 46.945L116.925 46.9487C117.147 47.0739 117.395 47.1332 117.665 47.1332C117.927 47.1332 118.173 47.0732 118.395 46.9494Z" fill="#0D72FF" stroke="#0D72FF" stroke-width="0.533333"/>
<path d="M122.817 47.6915C122.431 47.6915 122.092 47.6042 121.792 47.4354C121.493 47.2592 121.258 47.0223 121.082 46.7171C120.912 46.4184 120.825 46.0755 120.825 45.6832C120.825 45.2909 120.911 44.9526 121.081 44.6585C121.258 44.3546 121.493 44.1197 121.792 43.9475L121.792 43.9475L121.793 43.947C122.093 43.7725 122.431 43.6832 122.817 43.6832C123.063 43.6832 123.288 43.7255 123.495 43.8065L123.495 43.8065L123.498 43.8077C123.706 43.8864 123.893 43.9971 124.058 44.1418L124.37 44.4161L124.489 44.0181L124.557 43.7915H124.959V47.5665H124.519L124.476 47.3878L124.375 46.9633L124.043 47.2474C123.878 47.3887 123.692 47.4978 123.483 47.5746L123.483 47.5746L123.482 47.5752C123.28 47.6509 123.057 47.6915 122.817 47.6915ZM123.647 46.941L123.647 46.941L123.648 46.9404C123.866 46.8172 124.041 46.6451 124.166 46.422C124.291 46.2004 124.35 45.9523 124.35 45.6832C124.35 45.4153 124.291 45.1677 124.166 44.9449L124.166 44.9449L124.166 44.9437C124.042 44.7249 123.868 44.5506 123.65 44.4268C123.429 44.2988 123.183 44.2332 122.917 44.2332C122.645 44.2332 122.396 44.2978 122.176 44.4268C121.954 44.5514 121.783 44.7262 121.66 44.9437L121.66 44.9437L121.659 44.9449C121.535 45.1677 121.475 45.4153 121.475 45.6832C121.475 45.9526 121.534 46.2008 121.66 46.4226L121.66 46.4226L121.661 46.425C121.784 46.6379 121.955 46.811 122.175 46.9387L122.175 46.9387L122.177 46.9404C122.399 47.0656 122.648 47.1248 122.917 47.1248C123.18 47.1248 123.425 47.0649 123.647 46.941Z" fill="#0D72FF" stroke="#0D72FF" stroke-width="0.533333"/>
<path d="M129.499 43.8004H130.151L128.434 47.6757L128.434 47.6756L128.433 47.6783C128.271 48.0539 128.108 48.3455 127.949 48.5558L127.948 48.5558L127.945 48.5601C127.794 48.7679 127.627 48.9082 127.448 48.9922L127.448 48.9921L127.443 48.9947C127.265 49.0826 127.035 49.1337 126.744 49.1337H126.528V48.6087H126.669C126.871 48.6087 127.056 48.585 127.207 48.5243C127.377 48.4616 127.511 48.3442 127.615 48.1923C127.705 48.0598 127.796 47.8813 127.887 47.6612L127.899 47.6363L127.957 47.5221L127.903 47.406L126.251 43.8004H126.928L128.008 46.2898L128.262 46.8749L128.5 46.2833L129.499 43.8004Z" fill="#0D72FF" stroke="#0D72FF" stroke-width="0.533333"/>
<path d="M137.295 45.1434V47.5767H136.67V45.3351C136.67 45.0155 136.611 44.7273 136.452 44.5137C136.282 44.2856 136.03 44.1851 135.745 44.1851C135.412 44.1851 135.132 44.314 134.934 44.5709C134.738 44.8193 134.661 45.1495 134.661 45.5184V47.5767H134.053V45.3351C134.053 45.017 133.997 44.7306 133.844 44.5176C133.68 44.2887 133.434 44.1851 133.153 44.1851C132.814 44.1851 132.525 44.3114 132.32 44.5685L132.319 44.5691C132.121 44.8176 132.045 45.1485 132.045 45.5184V47.5767H131.411V43.8017H131.779L131.921 44.1654L132.087 44.5891L132.376 44.2378C132.506 44.0794 132.668 43.9482 132.866 43.8477L132.866 43.8477L132.866 43.8473C133.056 43.7496 133.254 43.7017 133.461 43.7017C133.69 43.7017 133.89 43.7541 134.065 43.8513L134.065 43.8514C134.245 43.9514 134.381 44.0858 134.479 44.2583L134.686 44.622L134.928 44.2815C135.054 44.1057 135.213 43.9666 135.41 43.8627L135.41 43.8627L135.414 43.8609C135.608 43.7553 135.816 43.7017 136.045 43.7017C136.291 43.7017 136.501 43.7621 136.685 43.8769C136.869 43.9953 137.014 44.1581 137.123 44.3725L137.123 44.3725L137.125 44.3748C137.235 44.587 137.295 44.8414 137.295 45.1434Z" fill="#0D72FF" stroke="#0D72FF" stroke-width="0.533333"/>
<path d="M140.573 47.1915C140.815 47.1915 141.043 47.1395 141.245 47.0243C141.398 46.9405 141.527 46.8314 141.63 46.6998H142.305C142.164 46.9534 141.977 47.1636 141.743 47.3332C141.408 47.5713 141.021 47.6915 140.573 47.6915C140.194 47.6915 139.859 47.6042 139.566 47.436C139.267 47.2598 139.034 47.0234 138.864 46.7195L138.864 46.7195L138.863 46.7178C138.693 46.4184 138.607 46.0793 138.607 45.6915C138.607 45.299 138.693 44.9606 138.863 44.6664L138.863 44.6664L138.864 44.6641C139.035 44.3609 139.268 44.1222 139.567 43.9463L139.567 43.9463L139.567 43.9459C139.86 43.7723 140.194 43.6832 140.573 43.6832C140.973 43.6832 141.314 43.7766 141.6 43.9519C141.894 44.1341 142.12 44.3728 142.281 44.6688L142.281 44.6688L142.281 44.6704C142.446 44.9685 142.532 45.3009 142.532 45.6748C142.532 45.6997 142.531 45.7247 142.531 45.7498H139.523H139.207L139.26 46.0619C139.319 46.3988 139.459 46.6837 139.698 46.8922L139.698 46.8922L139.702 46.8964C139.945 47.0987 140.242 47.1915 140.573 47.1915ZM139.297 45.1548L139.219 45.4832H139.557H141.64H142.006L141.894 45.1348C141.795 44.8279 141.636 44.5741 141.404 44.3983C141.171 44.2216 140.888 44.1415 140.573 44.1415C140.263 44.1415 139.985 44.2313 139.751 44.4147C139.516 44.5977 139.369 44.8524 139.297 45.1548Z" fill="#0D72FF" stroke="#0D72FF" stroke-width="0.533333"/>
<path d="M147.036 44.1023L147.036 44.1023L147.037 44.1036C147.267 44.3655 147.396 44.7323 147.396 45.236V47.5777H146.763V45.4194C146.763 45.0707 146.697 44.7602 146.522 44.5323C146.337 44.2911 146.064 44.186 145.754 44.186C145.387 44.186 145.071 44.3171 144.843 44.5883C144.617 44.8501 144.521 45.1913 144.521 45.5777V47.5777H143.888V43.8027H144.244L144.4 44.173L144.571 44.5779L144.851 44.2394C144.983 44.0806 145.155 43.952 145.372 43.8542L145.372 43.8542L145.376 43.8527C145.588 43.7536 145.82 43.7027 146.079 43.7027C146.5 43.7027 146.81 43.8414 147.036 44.1023Z" fill="#0D72FF" stroke="#0D72FF" stroke-width="0.533333"/>
<path d="M149.029 44.2013H148.643L149.904 42.8534V43.5347V43.8013H150.171H151.096V44.2013H150.196H149.929V44.468V46.1513C149.929 46.4049 149.997 46.6397 150.17 46.8198L150.17 46.8198L150.174 46.8232C150.355 47.0041 150.598 47.0763 150.862 47.0763H151.121V47.5763H150.562C150.144 47.5763 149.842 47.4585 149.626 47.2461C149.414 47.0302 149.296 46.7271 149.296 46.3013V44.468V44.2013H149.029Z" fill="#0D72FF" stroke="#0D72FF" stroke-width="0.533333"/>
<path d="M153.332 45.0503L153.244 45.302C153.424 45.3651 153.634 45.4118 153.871 45.4466C154.035 45.4788 154.208 45.517 154.386 45.5595C154.551 45.5998 154.702 45.6594 154.841 45.7396L154.841 45.7397L154.844 45.7415C154.962 45.8075 155.056 45.8988 155.128 46.0204L155.128 46.0205L155.133 46.0274C155.196 46.1267 155.241 46.2795 155.241 46.5087C155.241 46.7567 155.179 46.9565 155.063 47.1235C154.944 47.2952 154.773 47.4364 154.541 47.5397C154.315 47.6383 154.039 47.692 153.707 47.692C153.376 47.692 153.1 47.6331 152.871 47.5256L152.87 47.5252C152.637 47.4168 152.462 47.2706 152.338 47.0871C152.263 46.9691 152.21 46.8383 152.182 46.692H152.8C152.848 46.8421 152.939 46.9717 153.072 47.072L153.072 47.072L153.077 47.0752C153.268 47.2128 153.499 47.267 153.749 47.267C153.95 47.267 154.14 47.2222 154.31 47.1213L154.174 46.892M153.332 45.0503L153.245 45.3023C153.134 45.2638 153.027 45.2016 152.948 45.1027C152.867 45.0007 152.832 44.8806 152.832 44.7587C152.832 44.5512 152.924 44.3761 153.083 44.2496L153.086 44.2474L153.086 44.2475C153.249 44.122 153.456 44.0753 153.674 44.0753C153.911 44.0753 154.128 44.1294 154.3 44.2615C154.418 44.347 154.496 44.4578 154.54 44.5837H155.129C155.101 44.4589 155.053 44.3483 154.986 44.2497L154.983 44.2448L154.983 44.2447C154.874 44.0761 154.717 43.9416 154.498 43.8437L154.494 43.8416L154.494 43.8415C154.279 43.7402 154.019 43.6837 153.707 43.6837C153.386 43.6837 153.119 43.7372 152.9 43.8354L152.898 43.8362L152.898 43.8362C152.682 43.931 152.519 44.062 152.4 44.2297C152.288 44.3872 152.232 44.5678 152.232 44.7837C152.232 45.0072 152.276 45.162 152.342 45.2676L152.343 45.2689L152.343 45.2689C152.422 45.3977 152.516 45.4899 152.625 45.5532C152.756 45.6295 152.905 45.69 153.069 45.7347C153.243 45.7822 153.407 45.8167 153.564 45.8356L153.578 45.8373L153.578 45.8376C153.817 45.8792 154.027 45.9328 154.209 46.0004L154.212 46.0018L154.212 46.0019C154.324 46.0453 154.43 46.1118 154.508 46.2135C154.589 46.3183 154.624 46.4408 154.624 46.567C154.624 46.8057 154.513 47.0025 154.309 47.122L154.174 46.892M153.332 45.0503C153.176 44.9962 153.099 44.8982 153.099 44.7587C153.099 44.6378 153.149 44.5378 153.249 44.4587L154.449 45.3003C154.266 45.2566 154.086 45.217 153.916 45.1837C153.686 45.1503 153.493 45.1066 153.332 45.0503ZM154.174 46.892C154.051 46.9649 153.909 47.0003 153.749 47.0003C153.536 47.0003 153.366 46.9545 153.232 46.8587L152.491 45.7837C152.645 45.8732 152.816 45.942 152.999 45.992C153.182 46.042 153.359 46.0795 153.532 46.1003C153.759 46.1399 153.953 46.1899 154.116 46.2503C154.276 46.3128 154.357 46.417 154.357 46.567C154.357 46.7128 154.295 46.8212 154.174 46.892Z" fill="#0D72FF" stroke="#0D72FF" stroke-width="0.533333"/>
<path d="M63.9805 58.4897V4.86474V58.4897Z" fill="#0D72FF"/>
<path d="M63.9805 58.4897V4.86474" stroke="#0D72FF" stroke-width="1.2"/>
</svg>
